<?xml version="1.0" encoding="utf-8"?>
<!-- Generator: Adobe Illustrator 21.1.0, SVG Export Plug-In . SVG Version: 6.00 Build 0)  -->
<svg version="1.1" id="Camada_1" xmlns="http://www.w3.org/2000/svg" xmlns:xlink="http://www.w3.org/1999/xlink" x="0px" y="0px"
	 viewBox="0 0 305 305" style="enable-background:new 0 0 305 305;" xml:space="preserve">
<style type="text/css">
	.st0{fill:#FFFFFF;}
	.st1{fill:#26A0F5;}
</style>
<title>logo</title>
<desc>Created with Sketch.</desc>
<g id="Login">
	<g id="logo" transform="translate(-388.000000, -309.000000)">
		<g transform="translate(360.000000, 281.000000)">
			<path id="bg" class="st0" d="M190.5,34.6l76.1,27.7c51.9,18.9,78.7,76.3,59.8,128.2l-27.7,76.1c-18.9,51.9-76.3,78.7-128.2,59.8
				l-76.1-27.7c-51.9-18.9-78.7-76.3-59.8-128.2l27.7-76.1C81.2,42.5,138.6,15.7,190.5,34.6z"/>
			<path class="st1" d="M157.3,172.6c-5.2-2.8-10.4-5.3-14.1-8.1c-3.7-2.8-5.8-5.7-5.9-9.6c0-5.5,4.4-9.3,11.7-9.4
				c9.1,0,18.1,4,21.1,5.7l2.4,1.3v-16.1l-1.3-0.2c-3.5-0.6-12.3-2.3-20.7-2.3c-9.4,0-17,2.1-22.4,6.2c-5.4,4.1-8.2,10.3-8.2,17.7
				c0,14.6,11.3,21.5,21.7,27c5.2,2.8,10.4,5.3,14.1,8.3c3.7,3,5.9,6.1,5.9,10.5c0,4-1.4,6.5-3.8,8.3c-2.4,1.8-6,2.7-10.4,2.7
				c-9.8,0-19.9-5.2-23.8-7.5l-2.5-1.4v17.4l1.1,0.4c3,1.1,12.7,3.4,23,3.4c9.1,0,17.5-1.8,23.7-6.2c6.2-4.3,10.1-11.4,10.1-20.9
				C179,185.3,167.7,178.2,157.3,172.6L157.3,172.6z M224.6,178.5c6.1-2.8,12.3-8.8,12.3-19.5c0.1-9.6-4.4-15.4-10.7-18.4
				c-6.2-3-14-3.6-21.2-3.6h-21v89h21c5.9,0,14.7,0,22.3-3.1c7.6-3,13.8-9.7,13.8-21.9C241.1,187.4,232.8,181.1,224.6,178.5
				L224.6,178.5z M200,148h4.5c5,0,9,0.5,11.5,2.2c2.5,1.7,4,4.4,4,9.9c0,5.7-1.6,9-4.1,11c-2.6,2-6.5,2.9-11.3,2.8H200V148z
				 M217.8,211.9c-3.6,1.9-8.6,2.1-13.3,2.1H200v-30h4.5c5.4,0,10.4,0.8,13.9,3c3.4,2.2,5.6,5.7,5.6,12.1
				C223.9,206.7,221.4,210,217.8,211.9L217.8,211.9z"/>
		</g>
	</g>
</g>
</svg>
