<?xml version="1.0" encoding="UTF-8"?>
<svg width="305px" height="305px" viewBox="0 0 305 305" version="1.1" xmlns="http://www.w3.org/2000/svg" xmlns:xlink="http://www.w3.org/1999/xlink">
    <!-- Generator: Sketch 43.2 (39069) - http://www.bohemiancoding.com/sketch -->
    <title>logo</title>
    <desc>Created with Sketch.</desc>
    <defs></defs>
    <g id="Login" stroke="none" stroke-width="1" fill="none" fill-rule="evenodd">
        <g transform="translate(-388.000000, -309.000000)" id="logo">
            <g transform="translate(360.000000, 281.000000)">
                <rect id="bg" fill="#2196F3" transform="translate(180.500000, 180.500000) rotate(20.000000) translate(-180.500000, -180.500000) " x="40" y="40" width="281" height="281" rx="100"></rect>
                <path d="M157.331143,172.640036 C152.088266,169.839448 146.933717,167.349347 143.233419,164.545655 C139.517349,161.698494 137.384867,158.81718 137.369094,154.908156 C137.413258,149.372183 141.813868,145.649451 149.053581,145.550095 C158.176565,145.531466 167.132358,149.589524 170.154426,151.275465 L172.599209,152.622976 L172.599209,136.545989 L171.255367,136.2976 C167.785352,135.670417 158.993596,134.00621 150.589851,134 C141.195574,134.00621 133.583623,136.092679 128.230337,140.209729 C122.87705,144.317464 119.981165,150.48062 120.000092,157.932294 C120.01271,172.484793 131.293413,179.405535 141.668758,184.929089 C146.905326,187.720362 152.047257,190.263246 155.734937,193.206657 C159.438389,196.193537 161.608725,199.320135 161.630807,203.701098 C161.602416,207.728107 160.201792,210.243047 157.807482,212.022135 C155.406862,213.782593 151.77912,214.701633 147.387973,214.701633 C137.58045,214.723367 127.485861,209.454412 123.615217,207.222014 L121.151506,205.818616 L121.151506,223.22138 L122.205129,223.615698 C125.217733,224.724134 134.933775,226.987581 145.208173,227 C154.324849,226.996895 162.690739,225.18055 168.920993,220.818215 C175.148093,216.477615 179.031355,209.466831 178.999809,199.922479 C178.987191,185.317197 167.731724,178.16359 157.331143,172.640036 L157.331143,172.640036 Z M224.597816,178.520431 C230.731209,175.676651 236.895831,169.683175 236.864602,158.988566 C236.92706,149.389639 232.436317,143.546 226.199868,140.561748 C219.994648,137.540037 212.193622,137.009365 204.995317,137 L184,137 L184,226 L204.995317,226 C210.885123,225.996878 219.701095,226.034338 227.246043,222.94083 C234.819097,219.909754 241.074283,213.288836 240.999333,201.011574 C241.061792,187.354565 232.795452,181.077023 224.597816,178.520431 L224.597816,178.520431 Z M200,148.000324 L204.544316,148.000324 C209.54275,147.98453 213.513937,148.543627 216.019417,150.230395 C218.484184,151.891893 219.971813,154.639997 220,160.17727 C219.987473,165.888274 218.424679,169.151253 215.884748,171.153895 C213.329158,173.175489 209.430003,174.009396 204.544316,173.99992 L200,173.99992 L200,148.000324 Z M217.807757,211.933497 C214.193281,213.830367 209.168504,214.011753 204.517317,213.999456 L200,213.999456 L200,184.000009 L204.517317,184.000009 C209.953042,183.996935 214.92178,184.759372 218.368141,186.960602 C221.786483,189.158758 223.962641,192.645064 224,199.064294 C223.947075,206.660997 221.387988,210.030478 217.807757,211.933497 L217.807757,211.933497 Z" fill="#FEFEFE"></path>
            </g>
        </g>
    </g>
</svg>